# xmcd CD database file
#
# Track frame offsets:
#	150
#	13773
#	35298
#	63345
#	82663
#	98943
#	127883
#	144178
#	164870
#	180628
#
# Disc length: 2647 seconds
#
# Revision: 2
# Processed by: cddbd v1.4b41PL1 Copyright (c) Steve Scherf et al.
# Submitted via: Feurio! 1.52 - http://www.feurio.com
#
DISCID=780a550a
DTITLE=Little Willie Littlefield - Paris Streetlights
DYEAR=1900
DGENRE=
TTITLE0=Paris Streetlights
TTITLE1=I Got The Blues Over You
TTITLE2=Cours De Vincennes
TTITLE3=Sometimes
TTITLE4=Messin' Arround Town
TTITLE5=Dirty
TTITLE6=My Baby's Back in Town (And I Won't Be Lonely Now)
TTITLE7=Paris
TTITLE8=Little Willie's Boogie
TTITLE9=So Long
EXTD=
EXTT0=
EXTT1=
EXTT2=
EXTT3=
EXTT4=
EXTT5=
EXTT6=
EXTT7=
EXTT8=
EXTT9=
PLAYORDER=
